<svg xmlns="http://www.w3.org/2000/svg" enable-background="new 0 0 2000 2000" viewBox="0 0 2000 2000" id="website-layout"><path d="M1744,647c-11.6,0-21-9.4-21-21V410H277v216c0,11.6-9.4,21-21,21s-21-9.4-21-21V389c0-11.6,9.4-21,21-21h1488c11.6,0,21,9.4,21,21v237C1765,637.6,1755.6,647,1744,647z"></path><path d="M1744 1632H256c-11.6 0-21-9.4-21-21V626c0-11.6 9.4-21 21-21h1488c11.6 0 21 9.4 21 21v985C1765 1622.6 1755.6 1632 1744 1632zM277 1590h1446V647H277V1590zM443 542.5L443 542.5c-19.3 0-35-15.7-35-35v0c0-19.3 15.7-35 35-35h0c19.3 0 35 15.7 35 35v0C478 526.8 462.3 542.5 443 542.5zM581 542.5L581 542.5c-19.3 0-35-15.7-35-35v0c0-19.3 15.7-35 35-35h0c19.3 0 35 15.7 35 35v0C616 526.8 600.3 542.5 581 542.5zM719 542.5L719 542.5c-19.3 0-35-15.7-35-35v0c0-19.3 15.7-35 35-35h0c19.3 0 35 15.7 35 35v0C754 526.8 738.3 542.5 719 542.5z"></path><path d="M681.1 1093h-280c-11.6 0-21-9.4-21-21V792c0-11.6 9.4-21 21-21h280c11.6 0 21 9.4 21 21v280C702.1 1083.6 692.7 1093 681.1 1093zM422.1 1051h238V813h-238V1051zM1598.9 1093H808.9c-11.6 0-21-9.4-21-21V792c0-11.6 9.4-21 21-21h790.1c11.6 0 21 9.4 21 21v280C1619.9 1083.6 1610.5 1093 1598.9 1093zM829.9 1051h748.1V813H829.9V1051zM985 1217.3H401.1c-11.6 0-21-9.4-21-21s9.4-21 21-21H985c11.6 0 21 9.4 21 21S996.6 1217.3 985 1217.3zM1598.9 1217.3H1087c-11.6 0-21-9.4-21-21s9.4-21 21-21h511.9c11.6 0 21 9.4 21 21S1610.5 1217.3 1598.9 1217.3zM773 1341.7H401.1c-11.6 0-21-9.4-21-21s9.4-21 21-21H773c11.6 0 21 9.4 21 21S784.6 1341.7 773 1341.7zM1598.9 1341.7H861c-11.6 0-21-9.4-21-21s9.4-21 21-21h737.9c11.6 0 21 9.4 21 21S1610.5 1341.7 1598.9 1341.7zM1207 1466H401.1c-11.6 0-21-9.4-21-21s9.4-21 21-21H1207c11.6 0 21 9.4 21 21S1218.6 1466 1207 1466zM1598.9 1466H1295c-11.6 0-21-9.4-21-21s9.4-21 21-21h303.9c11.6 0 21 9.4 21 21S1610.5 1466 1598.9 1466z"></path></svg>